<mxfile host="app.diagrams.net" modified="2021-03-15T16:05:50.115Z" agent="5.0 (X11)" etag="FsyPnWT78SDnGePR18jI" version="14.4.8" type="github">
  <diagram id="C5RBs43oDa-KdzZeNtuy" name="Page-1">
    <mxGraphModel dx="2250" dy="1340" grid="1" gridSize="10" guides="1" tooltips="1" connect="1" arrows="1" fold="1" page="1" pageScale="5" pageWidth="827" pageHeight="1169" math="0" shadow="0">
      <root>
        <mxCell id="WIyWlLk6GJQsqaUBKTNV-0" />
        <mxCell id="WIyWlLk6GJQsqaUBKTNV-1" parent="WIyWlLk6GJQsqaUBKTNV-0" />
        <mxCell id="4tkjXzW0Gn319BX2Gngi-0" value="Game" style="swimlane;fontStyle=1;align=center;verticalAlign=top;childLayout=stackLayout;horizontal=1;startSize=26;horizontalStack=0;resizeParent=1;resizeParentMax=0;resizeLast=0;collapsible=1;marginBottom=0;" parent="WIyWlLk6GJQsqaUBKTNV-1" vertex="1">
          <mxGeometry x="2054" y="140" width="160" height="130" as="geometry" />
        </mxCell>
        <mxCell id="4tkjXzW0Gn319BX2Gngi-1" value="+ network: Network&#xa;+ window: Window&#xa;+ map: Map&#xa;" style="text;strokeColor=none;fillColor=none;align=left;verticalAlign=top;spacingLeft=4;spacingRight=4;overflow=hidden;rotatable=0;points=[[0,0.5],[1,0.5]];portConstraint=eastwest;" parent="4tkjXzW0Gn319BX2Gngi-0" vertex="1">
          <mxGeometry y="26" width="160" height="54" as="geometry" />
        </mxCell>
        <mxCell id="4tkjXzW0Gn319BX2Gngi-2" value="" style="line;strokeWidth=1;fillColor=none;align=left;verticalAlign=middle;spacingTop=-1;spacingLeft=3;spacingRight=3;rotatable=0;labelPosition=right;points=[];portConstraint=eastwest;" parent="4tkjXzW0Gn319BX2Gngi-0" vertex="1">
          <mxGeometry y="80" width="160" height="10" as="geometry" />
        </mxCell>
        <mxCell id="4tkjXzW0Gn319BX2Gngi-3" value="+ __init__(self)&#xa;+ run(self)&#xa;" style="text;strokeColor=none;fillColor=none;align=left;verticalAlign=top;spacingLeft=4;spacingRight=4;overflow=hidden;rotatable=0;points=[[0,0.5],[1,0.5]];portConstraint=eastwest;" parent="4tkjXzW0Gn319BX2Gngi-0" vertex="1">
          <mxGeometry y="90" width="160" height="40" as="geometry" />
        </mxCell>
        <mxCell id="4tkjXzW0Gn319BX2Gngi-8" value="Network" style="swimlane;fontStyle=1;align=center;verticalAlign=top;childLayout=stackLayout;horizontal=1;startSize=26;horizontalStack=0;resizeParent=1;resizeParentMax=0;resizeLast=0;collapsible=1;marginBottom=0;" parent="WIyWlLk6GJQsqaUBKTNV-1" vertex="1">
          <mxGeometry x="1300" y="250" width="290" height="160" as="geometry" />
        </mxCell>
        <mxCell id="4tkjXzW0Gn319BX2Gngi-33" value="" style="endArrow=open;endFill=1;endSize=12;html=1;entryX=-0.012;entryY=0.124;entryDx=0;entryDy=0;entryPerimeter=0;" parent="4tkjXzW0Gn319BX2Gngi-8" target="4tkjXzW0Gn319BX2Gngi-0" edge="1">
          <mxGeometry width="160" relative="1" as="geometry">
            <mxPoint x="130" as="sourcePoint" />
            <mxPoint x="290" as="targetPoint" />
          </mxGeometry>
        </mxCell>
        <mxCell id="4tkjXzW0Gn319BX2Gngi-9" value="+ game: Game&#xa;+ socket: socket.socket&#xa;+ subscribers: {event: [INetworkEventSubscriber]}&#xa;" style="text;strokeColor=none;fillColor=none;align=left;verticalAlign=top;spacingLeft=4;spacingRight=4;overflow=hidden;rotatable=0;points=[[0,0.5],[1,0.5]];portConstraint=eastwest;" parent="4tkjXzW0Gn319BX2Gngi-8" vertex="1">
          <mxGeometry y="26" width="290" height="54" as="geometry" />
        </mxCell>
        <mxCell id="4tkjXzW0Gn319BX2Gngi-10" value="" style="line;strokeWidth=1;fillColor=none;align=left;verticalAlign=middle;spacingTop=-1;spacingLeft=3;spacingRight=3;rotatable=0;labelPosition=right;points=[];portConstraint=eastwest;" parent="4tkjXzW0Gn319BX2Gngi-8" vertex="1">
          <mxGeometry y="80" width="290" height="8" as="geometry" />
        </mxCell>
        <mxCell id="4tkjXzW0Gn319BX2Gngi-11" value="+ __init__(self, game, subscriber)&#xa;+ send(self, message)&#xa;+ message_receive_iteration(self)&#xa;+ subscribe(self, event_name, subscriber)&#xa;&#xa;" style="text;strokeColor=none;fillColor=none;align=left;verticalAlign=top;spacingLeft=4;spacingRight=4;overflow=hidden;rotatable=0;points=[[0,0.5],[1,0.5]];portConstraint=eastwest;" parent="4tkjXzW0Gn319BX2Gngi-8" vertex="1">
          <mxGeometry y="88" width="290" height="72" as="geometry" />
        </mxCell>
        <mxCell id="4tkjXzW0Gn319BX2Gngi-15" value="Window" style="swimlane;fontStyle=1;align=center;verticalAlign=top;childLayout=stackLayout;horizontal=1;startSize=26;horizontalStack=0;resizeParent=1;resizeParentMax=0;resizeLast=0;collapsible=1;marginBottom=0;" parent="WIyWlLk6GJQsqaUBKTNV-1" vertex="1">
          <mxGeometry x="2500" y="310" width="210" height="180" as="geometry" />
        </mxCell>
        <mxCell id="4tkjXzW0Gn319BX2Gngi-16" value="+ game: Game&#xa;+ screen: Screen&#xa;+ graphics_facade: GraphicsFacade&#xa;&#xa;" style="text;strokeColor=none;fillColor=none;align=left;verticalAlign=top;spacingLeft=4;spacingRight=4;overflow=hidden;rotatable=0;points=[[0,0.5],[1,0.5]];portConstraint=eastwest;" parent="4tkjXzW0Gn319BX2Gngi-15" vertex="1">
          <mxGeometry y="26" width="210" height="54" as="geometry" />
        </mxCell>
        <mxCell id="4tkjXzW0Gn319BX2Gngi-17" value="" style="line;strokeWidth=1;fillColor=none;align=left;verticalAlign=middle;spacingTop=-1;spacingLeft=3;spacingRight=3;rotatable=0;labelPosition=right;points=[];portConstraint=eastwest;" parent="4tkjXzW0Gn319BX2Gngi-15" vertex="1">
          <mxGeometry y="80" width="210" height="8" as="geometry" />
        </mxCell>
        <mxCell id="4tkjXzW0Gn319BX2Gngi-18" value="+ __init__(self)&#xa;+ event_check_iteration(self)&#xa;+ change_screen(self, screen)&#xa;+ draw(self)&#xa;+ redraw(self)&#xa;+ keyboard_press(self, key)&#xa;" style="text;strokeColor=none;fillColor=none;align=left;verticalAlign=top;spacingLeft=4;spacingRight=4;overflow=hidden;rotatable=0;points=[[0,0.5],[1,0.5]];portConstraint=eastwest;" parent="4tkjXzW0Gn319BX2Gngi-15" vertex="1">
          <mxGeometry y="88" width="210" height="92" as="geometry" />
        </mxCell>
        <mxCell id="4tkjXzW0Gn319BX2Gngi-19" value="" style="endArrow=open;endFill=1;endSize=12;html=1;exitX=0.5;exitY=0;exitDx=0;exitDy=0;entryX=0.999;entryY=0.098;entryDx=0;entryDy=0;entryPerimeter=0;" parent="WIyWlLk6GJQsqaUBKTNV-1" source="4tkjXzW0Gn319BX2Gngi-15" target="4tkjXzW0Gn319BX2Gngi-0" edge="1">
          <mxGeometry x="1760" y="140" width="160" as="geometry">
            <mxPoint x="2270" y="180" as="sourcePoint" />
            <mxPoint x="2430" y="180" as="targetPoint" />
          </mxGeometry>
        </mxCell>
        <mxCell id="4tkjXzW0Gn319BX2Gngi-20" value="Screen" style="swimlane;fontStyle=1;align=center;verticalAlign=top;childLayout=stackLayout;horizontal=1;startSize=26;horizontalStack=0;resizeParent=1;resizeParentMax=0;resizeLast=0;collapsible=1;marginBottom=0;" parent="WIyWlLk6GJQsqaUBKTNV-1" vertex="1">
          <mxGeometry x="2450" y="550" width="210" height="130" as="geometry" />
        </mxCell>
        <mxCell id="4tkjXzW0Gn319BX2Gngi-24" value="" style="endArrow=open;endFill=1;endSize=12;html=1;entryX=0.439;entryY=1.024;entryDx=0;entryDy=0;entryPerimeter=0;" parent="4tkjXzW0Gn319BX2Gngi-20" target="4tkjXzW0Gn319BX2Gngi-18" edge="1">
          <mxGeometry width="160" relative="1" as="geometry">
            <mxPoint x="100" as="sourcePoint" />
            <mxPoint x="130" y="-80" as="targetPoint" />
          </mxGeometry>
        </mxCell>
        <mxCell id="4tkjXzW0Gn319BX2Gngi-21" value="+ game: Game" style="text;strokeColor=none;fillColor=none;align=left;verticalAlign=top;spacingLeft=4;spacingRight=4;overflow=hidden;rotatable=0;points=[[0,0.5],[1,0.5]];portConstraint=eastwest;" parent="4tkjXzW0Gn319BX2Gngi-20" vertex="1">
          <mxGeometry y="26" width="210" height="24" as="geometry" />
        </mxCell>
        <mxCell id="4tkjXzW0Gn319BX2Gngi-22" value="" style="line;strokeWidth=1;fillColor=none;align=left;verticalAlign=middle;spacingTop=-1;spacingLeft=3;spacingRight=3;rotatable=0;labelPosition=right;points=[];portConstraint=eastwest;" parent="4tkjXzW0Gn319BX2Gngi-20" vertex="1">
          <mxGeometry y="50" width="210" height="8" as="geometry" />
        </mxCell>
        <mxCell id="4tkjXzW0Gn319BX2Gngi-23" value="+ __init__(self)&#xa;+ open_(self)&#xa;+ draw(self)&#xa;+ keyboard_press(self, key) [abstract]&#xa;" style="text;strokeColor=none;fillColor=none;align=left;verticalAlign=top;spacingLeft=4;spacingRight=4;overflow=hidden;rotatable=0;points=[[0,0.5],[1,0.5]];portConstraint=eastwest;" parent="4tkjXzW0Gn319BX2Gngi-20" vertex="1">
          <mxGeometry y="58" width="210" height="72" as="geometry" />
        </mxCell>
        <mxCell id="4tkjXzW0Gn319BX2Gngi-25" value="MapScreen" style="swimlane;fontStyle=1;align=center;verticalAlign=top;childLayout=stackLayout;horizontal=1;startSize=26;horizontalStack=0;resizeParent=1;resizeParentMax=0;resizeLast=0;collapsible=1;marginBottom=0;" parent="WIyWlLk6GJQsqaUBKTNV-1" vertex="1">
          <mxGeometry x="2270" y="750" width="160" height="100" as="geometry" />
        </mxCell>
        <mxCell id="4tkjXzW0Gn319BX2Gngi-26" value="+ map: Map&#xa;&#xa;" style="text;strokeColor=none;fillColor=none;align=left;verticalAlign=top;spacingLeft=4;spacingRight=4;overflow=hidden;rotatable=0;points=[[0,0.5],[1,0.5]];portConstraint=eastwest;" parent="4tkjXzW0Gn319BX2Gngi-25" vertex="1">
          <mxGeometry y="26" width="160" height="24" as="geometry" />
        </mxCell>
        <mxCell id="4tkjXzW0Gn319BX2Gngi-27" value="" style="line;strokeWidth=1;fillColor=none;align=left;verticalAlign=middle;spacingTop=-1;spacingLeft=3;spacingRight=3;rotatable=0;labelPosition=right;points=[];portConstraint=eastwest;" parent="4tkjXzW0Gn319BX2Gngi-25" vertex="1">
          <mxGeometry y="50" width="160" height="8" as="geometry" />
        </mxCell>
        <mxCell id="4tkjXzW0Gn319BX2Gngi-28" value="+ __init__(self, game, map)&#xa;+ keyboard_press(self, key)" style="text;strokeColor=none;fillColor=none;align=left;verticalAlign=top;spacingLeft=4;spacingRight=4;overflow=hidden;rotatable=0;points=[[0,0.5],[1,0.5]];portConstraint=eastwest;" parent="4tkjXzW0Gn319BX2Gngi-25" vertex="1">
          <mxGeometry y="58" width="160" height="42" as="geometry" />
        </mxCell>
        <mxCell id="4tkjXzW0Gn319BX2Gngi-30" value="" style="endArrow=none;html=1;edgeStyle=orthogonalEdgeStyle;exitX=0.524;exitY=1;exitDx=0;exitDy=0;exitPerimeter=0;" parent="WIyWlLk6GJQsqaUBKTNV-1" source="4tkjXzW0Gn319BX2Gngi-23" edge="1">
          <mxGeometry relative="1" as="geometry">
            <mxPoint x="2190" y="750" as="sourcePoint" />
            <mxPoint x="2350" y="750" as="targetPoint" />
          </mxGeometry>
        </mxCell>
        <mxCell id="4tkjXzW0Gn319BX2Gngi-31" value="parent" style="edgeLabel;resizable=0;html=1;align=left;verticalAlign=bottom;" parent="4tkjXzW0Gn319BX2Gngi-30" connectable="0" vertex="1">
          <mxGeometry x="-1" relative="1" as="geometry">
            <mxPoint y="20" as="offset" />
          </mxGeometry>
        </mxCell>
        <mxCell id="4tkjXzW0Gn319BX2Gngi-32" value="child" style="edgeLabel;resizable=0;html=1;align=right;verticalAlign=bottom;" parent="4tkjXzW0Gn319BX2Gngi-30" connectable="0" vertex="1">
          <mxGeometry x="1" relative="1" as="geometry" />
        </mxCell>
        <mxCell id="4tkjXzW0Gn319BX2Gngi-34" value="Map" style="swimlane;fontStyle=1;align=center;verticalAlign=top;childLayout=stackLayout;horizontal=1;startSize=26;horizontalStack=0;resizeParent=1;resizeParentMax=0;resizeLast=0;collapsible=1;marginBottom=0;" parent="WIyWlLk6GJQsqaUBKTNV-1" vertex="1">
          <mxGeometry x="1890" y="460" width="160" height="220" as="geometry" />
        </mxCell>
        <mxCell id="4tkjXzW0Gn319BX2Gngi-38" value="" style="endArrow=open;endFill=1;endSize=12;html=1;entryX=0.25;entryY=1;entryDx=0;entryDy=0;" parent="4tkjXzW0Gn319BX2Gngi-34" target="4tkjXzW0Gn319BX2Gngi-0" edge="1">
          <mxGeometry width="160" relative="1" as="geometry">
            <mxPoint x="80" as="sourcePoint" />
            <mxPoint x="240" as="targetPoint" />
          </mxGeometry>
        </mxCell>
        <mxCell id="4tkjXzW0Gn319BX2Gngi-35" value="+ game: Game&#xa;+ protagonist: Player&#xa;+ antagonist: Player&#xa;+ fortresses: [Fortress]&#xa;+ squads: [Squad]&#xa;+ turn: bool&#xa;+ moves_left: int&#xa;" style="text;strokeColor=none;fillColor=none;align=left;verticalAlign=top;spacingLeft=4;spacingRight=4;overflow=hidden;rotatable=0;points=[[0,0.5],[1,0.5]];portConstraint=eastwest;" parent="4tkjXzW0Gn319BX2Gngi-34" vertex="1">
          <mxGeometry y="26" width="160" height="114" as="geometry" />
        </mxCell>
        <mxCell id="4tkjXzW0Gn319BX2Gngi-36" value="" style="line;strokeWidth=1;fillColor=none;align=left;verticalAlign=middle;spacingTop=-1;spacingLeft=3;spacingRight=3;rotatable=0;labelPosition=right;points=[];portConstraint=eastwest;" parent="4tkjXzW0Gn319BX2Gngi-34" vertex="1">
          <mxGeometry y="140" width="160" height="8" as="geometry" />
        </mxCell>
        <mxCell id="4tkjXzW0Gn319BX2Gngi-37" value="+ __init__(self, game)&#xa;+ update_state(self, state)&#xa;+ send_state(self)&#xa;+ keyboard_press(self, key)&#xa;" style="text;strokeColor=none;fillColor=none;align=left;verticalAlign=top;spacingLeft=4;spacingRight=4;overflow=hidden;rotatable=0;points=[[0,0.5],[1,0.5]];portConstraint=eastwest;" parent="4tkjXzW0Gn319BX2Gngi-34" vertex="1">
          <mxGeometry y="148" width="160" height="72" as="geometry" />
        </mxCell>
        <mxCell id="4tkjXzW0Gn319BX2Gngi-39" value="" style="endArrow=open;endFill=1;endSize=12;html=1;entryX=-0.025;entryY=0.117;entryDx=0;entryDy=0;entryPerimeter=0;" parent="4tkjXzW0Gn319BX2Gngi-34" target="4tkjXzW0Gn319BX2Gngi-25" edge="1">
          <mxGeometry width="160" relative="1" as="geometry">
            <mxPoint x="160" y="170" as="sourcePoint" />
            <mxPoint x="320" y="170" as="targetPoint" />
          </mxGeometry>
        </mxCell>
        <mxCell id="4tkjXzW0Gn319BX2Gngi-40" value="" style="endArrow=open;endFill=1;endSize=12;html=1;" parent="WIyWlLk6GJQsqaUBKTNV-1" source="AntspPVpGCCjLXlMSwEk-1" target="4tkjXzW0Gn319BX2Gngi-8" edge="1">
          <mxGeometry width="160" relative="1" as="geometry">
            <mxPoint x="1580" y="360" as="sourcePoint" />
            <mxPoint x="1740" y="360" as="targetPoint" />
          </mxGeometry>
        </mxCell>
        <mxCell id="4tkjXzW0Gn319BX2Gngi-41" value="Player" style="swimlane;fontStyle=1;align=center;verticalAlign=top;childLayout=stackLayout;horizontal=1;startSize=26;horizontalStack=0;resizeParent=1;resizeParentMax=0;resizeLast=0;collapsible=1;marginBottom=0;" parent="WIyWlLk6GJQsqaUBKTNV-1" vertex="1">
          <mxGeometry x="1350" y="820" width="160" height="150" as="geometry" />
        </mxCell>
        <mxCell id="4tkjXzW0Gn319BX2Gngi-45" value="" style="endArrow=open;endFill=1;endSize=12;html=1;entryX=0;entryY=0.5;entryDx=0;entryDy=0;" parent="4tkjXzW0Gn319BX2Gngi-41" target="4tkjXzW0Gn319BX2Gngi-35" edge="1">
          <mxGeometry width="160" relative="1" as="geometry">
            <mxPoint x="80" as="sourcePoint" />
            <mxPoint x="240" as="targetPoint" />
          </mxGeometry>
        </mxCell>
        <mxCell id="4tkjXzW0Gn319BX2Gngi-42" value="+ gold: int&#xa;" style="text;strokeColor=none;fillColor=none;align=left;verticalAlign=top;spacingLeft=4;spacingRight=4;overflow=hidden;rotatable=0;points=[[0,0.5],[1,0.5]];portConstraint=eastwest;" parent="4tkjXzW0Gn319BX2Gngi-41" vertex="1">
          <mxGeometry y="26" width="160" height="64" as="geometry" />
        </mxCell>
        <mxCell id="4tkjXzW0Gn319BX2Gngi-43" value="" style="line;strokeWidth=1;fillColor=none;align=left;verticalAlign=middle;spacingTop=-1;spacingLeft=3;spacingRight=3;rotatable=0;labelPosition=right;points=[];portConstraint=eastwest;" parent="4tkjXzW0Gn319BX2Gngi-41" vertex="1">
          <mxGeometry y="90" width="160" height="8" as="geometry" />
        </mxCell>
        <mxCell id="4tkjXzW0Gn319BX2Gngi-44" value="+ __init__(self)" style="text;strokeColor=none;fillColor=none;align=left;verticalAlign=top;spacingLeft=4;spacingRight=4;overflow=hidden;rotatable=0;points=[[0,0.5],[1,0.5]];portConstraint=eastwest;" parent="4tkjXzW0Gn319BX2Gngi-41" vertex="1">
          <mxGeometry y="98" width="160" height="52" as="geometry" />
        </mxCell>
        <mxCell id="4tkjXzW0Gn319BX2Gngi-46" value="Squad" style="swimlane;fontStyle=1;align=center;verticalAlign=top;childLayout=stackLayout;horizontal=1;startSize=26;horizontalStack=0;resizeParent=1;resizeParentMax=0;resizeLast=0;collapsible=1;marginBottom=0;" parent="WIyWlLk6GJQsqaUBKTNV-1" vertex="1">
          <mxGeometry x="1570" y="1196" width="180" height="180" as="geometry" />
        </mxCell>
        <mxCell id="4tkjXzW0Gn319BX2Gngi-47" value="+ x: int&#xa;+ y: int&#xa;+ master: Player&#xa;+ soldiers: [Soldier]" style="text;strokeColor=none;fillColor=none;align=left;verticalAlign=top;spacingLeft=4;spacingRight=4;overflow=hidden;rotatable=0;points=[[0,0.5],[1,0.5]];portConstraint=eastwest;" parent="4tkjXzW0Gn319BX2Gngi-46" vertex="1">
          <mxGeometry y="26" width="180" height="64" as="geometry" />
        </mxCell>
        <mxCell id="4tkjXzW0Gn319BX2Gngi-48" value="" style="line;strokeWidth=1;fillColor=none;align=left;verticalAlign=middle;spacingTop=-1;spacingLeft=3;spacingRight=3;rotatable=0;labelPosition=right;points=[];portConstraint=eastwest;" parent="4tkjXzW0Gn319BX2Gngi-46" vertex="1">
          <mxGeometry y="90" width="180" height="8" as="geometry" />
        </mxCell>
        <mxCell id="4tkjXzW0Gn319BX2Gngi-49" value="+ __init__(self, player)&#xa;+ move(self, dx, dy)&#xa;+ fight(self, other)&#xa;+ invade_fortress(self, fortress)&#xa;+ die(self)&#xa;" style="text;strokeColor=none;fillColor=none;align=left;verticalAlign=top;spacingLeft=4;spacingRight=4;overflow=hidden;rotatable=0;points=[[0,0.5],[1,0.5]];portConstraint=eastwest;" parent="4tkjXzW0Gn319BX2Gngi-46" vertex="1">
          <mxGeometry y="98" width="180" height="82" as="geometry" />
        </mxCell>
        <mxCell id="4tkjXzW0Gn319BX2Gngi-50" value="Fortress&#xa;" style="swimlane;fontStyle=1;align=center;verticalAlign=top;childLayout=stackLayout;horizontal=1;startSize=26;horizontalStack=0;resizeParent=1;resizeParentMax=0;resizeLast=0;collapsible=1;marginBottom=0;" parent="WIyWlLk6GJQsqaUBKTNV-1" vertex="1">
          <mxGeometry x="2080" y="996" width="180" height="200" as="geometry" />
        </mxCell>
        <mxCell id="4tkjXzW0Gn319BX2Gngi-51" value="+ self.game: Game&#xa;+ self.garisson: Squad&#xa;+ self.guest: Squad&#xa;+ self. shop = [(Soldier, int)]&#xa;+ self.master:Player&#xa;+ self.x: int&#xa;+ self.y: int &#xa;&#xa;" style="text;strokeColor=none;fillColor=none;align=left;verticalAlign=top;spacingLeft=4;spacingRight=4;overflow=hidden;rotatable=0;points=[[0,0.5],[1,0.5]];portConstraint=eastwest;" parent="4tkjXzW0Gn319BX2Gngi-50" vertex="1">
          <mxGeometry y="26" width="180" height="114" as="geometry" />
        </mxCell>
        <mxCell id="4tkjXzW0Gn319BX2Gngi-52" value="" style="line;strokeWidth=1;fillColor=none;align=left;verticalAlign=middle;spacingTop=-1;spacingLeft=3;spacingRight=3;rotatable=0;labelPosition=right;points=[];portConstraint=eastwest;" parent="4tkjXzW0Gn319BX2Gngi-50" vertex="1">
          <mxGeometry y="140" width="180" height="8" as="geometry" />
        </mxCell>
        <mxCell id="4tkjXzW0Gn319BX2Gngi-53" value="+ __init__(self, game, x, y)&#xa;+ open_base_menu(self)&#xa;+ change_master(self, master)" style="text;strokeColor=none;fillColor=none;align=left;verticalAlign=top;spacingLeft=4;spacingRight=4;overflow=hidden;rotatable=0;points=[[0,0.5],[1,0.5]];portConstraint=eastwest;" parent="4tkjXzW0Gn319BX2Gngi-50" vertex="1">
          <mxGeometry y="148" width="180" height="52" as="geometry" />
        </mxCell>
        <mxCell id="4tkjXzW0Gn319BX2Gngi-54" value="FortressMenuScreen" style="swimlane;fontStyle=1;align=center;verticalAlign=top;childLayout=stackLayout;horizontal=1;startSize=26;horizontalStack=0;resizeParent=1;resizeParentMax=0;resizeLast=0;collapsible=1;marginBottom=0;" parent="WIyWlLk6GJQsqaUBKTNV-1" vertex="1">
          <mxGeometry x="2490" y="920" width="160" height="130" as="geometry" />
        </mxCell>
        <mxCell id="4tkjXzW0Gn319BX2Gngi-55" value="+ selected_point: int&#xa;+ fortress: Fortress&#xa;&#xa;-//-&#xa;" style="text;strokeColor=none;fillColor=none;align=left;verticalAlign=top;spacingLeft=4;spacingRight=4;overflow=hidden;rotatable=0;points=[[0,0.5],[1,0.5]];portConstraint=eastwest;" parent="4tkjXzW0Gn319BX2Gngi-54" vertex="1">
          <mxGeometry y="26" width="160" height="44" as="geometry" />
        </mxCell>
        <mxCell id="4tkjXzW0Gn319BX2Gngi-56" value="" style="line;strokeWidth=1;fillColor=none;align=left;verticalAlign=middle;spacingTop=-1;spacingLeft=3;spacingRight=3;rotatable=0;labelPosition=right;points=[];portConstraint=eastwest;" parent="4tkjXzW0Gn319BX2Gngi-54" vertex="1">
          <mxGeometry y="70" width="160" height="8" as="geometry" />
        </mxCell>
        <mxCell id="4tkjXzW0Gn319BX2Gngi-57" value="+ __init__(self, game, base)&#xa;+ keyboard_press(self, key)&#xa;" style="text;strokeColor=none;fillColor=none;align=left;verticalAlign=top;spacingLeft=4;spacingRight=4;overflow=hidden;rotatable=0;points=[[0,0.5],[1,0.5]];portConstraint=eastwest;" parent="4tkjXzW0Gn319BX2Gngi-54" vertex="1">
          <mxGeometry y="78" width="160" height="52" as="geometry" />
        </mxCell>
        <mxCell id="4tkjXzW0Gn319BX2Gngi-61" value="" style="endArrow=open;endFill=1;endSize=12;html=1;entryX=0;entryY=0.25;entryDx=0;entryDy=0;exitX=1;exitY=0.25;exitDx=0;exitDy=0;" parent="WIyWlLk6GJQsqaUBKTNV-1" source="4tkjXzW0Gn319BX2Gngi-50" target="4tkjXzW0Gn319BX2Gngi-54" edge="1">
          <mxGeometry width="160" relative="1" as="geometry">
            <mxPoint x="2230" y="1006" as="sourcePoint" />
            <mxPoint x="2390" y="1006" as="targetPoint" />
          </mxGeometry>
        </mxCell>
        <mxCell id="4tkjXzW0Gn319BX2Gngi-62" value="" style="endArrow=open;endFill=1;endSize=12;html=1;" parent="WIyWlLk6GJQsqaUBKTNV-1" source="4tkjXzW0Gn319BX2Gngi-51" target="4tkjXzW0Gn319BX2Gngi-46" edge="1">
          <mxGeometry width="160" relative="1" as="geometry">
            <mxPoint x="1920" y="1010" as="sourcePoint" />
            <mxPoint x="2080" y="1010" as="targetPoint" />
          </mxGeometry>
        </mxCell>
        <mxCell id="4tkjXzW0Gn319BX2Gngi-63" value="" style="endArrow=open;endFill=1;endSize=12;html=1;" parent="WIyWlLk6GJQsqaUBKTNV-1" source="4tkjXzW0Gn319BX2Gngi-51" target="4tkjXzW0Gn319BX2Gngi-41" edge="1">
          <mxGeometry width="160" relative="1" as="geometry">
            <mxPoint x="1690" y="920" as="sourcePoint" />
            <mxPoint x="1850" y="920" as="targetPoint" />
          </mxGeometry>
        </mxCell>
        <mxCell id="4tkjXzW0Gn319BX2Gngi-64" value="" style="endArrow=open;endFill=1;endSize=12;html=1;exitX=0.25;exitY=0;exitDx=0;exitDy=0;entryX=0.814;entryY=1.032;entryDx=0;entryDy=0;entryPerimeter=0;" parent="WIyWlLk6GJQsqaUBKTNV-1" source="4tkjXzW0Gn319BX2Gngi-46" target="4tkjXzW0Gn319BX2Gngi-44" edge="1">
          <mxGeometry width="160" relative="1" as="geometry">
            <mxPoint x="1810" y="1040" as="sourcePoint" />
            <mxPoint x="1970" y="1040" as="targetPoint" />
          </mxGeometry>
        </mxCell>
        <mxCell id="4tkjXzW0Gn319BX2Gngi-66" value="Soldier" style="swimlane;fontStyle=1;align=center;verticalAlign=top;childLayout=stackLayout;horizontal=1;startSize=26;horizontalStack=0;resizeParent=1;resizeParentMax=0;resizeLast=0;collapsible=1;marginBottom=0;" parent="WIyWlLk6GJQsqaUBKTNV-1" vertex="1">
          <mxGeometry x="1730" y="1520" width="230" height="98" as="geometry" />
        </mxCell>
        <mxCell id="4tkjXzW0Gn319BX2Gngi-67" value="+ squad: Squad&#xa;+ armor: int&#xa;+ attack: int&#xa;+ hp: int&#xa;" style="text;strokeColor=none;fillColor=none;align=left;verticalAlign=top;spacingLeft=4;spacingRight=4;overflow=hidden;rotatable=0;points=[[0,0.5],[1,0.5]];portConstraint=eastwest;" parent="4tkjXzW0Gn319BX2Gngi-66" vertex="1">
          <mxGeometry y="26" width="230" height="64" as="geometry" />
        </mxCell>
        <mxCell id="4tkjXzW0Gn319BX2Gngi-68" value="" style="line;strokeWidth=1;fillColor=none;align=left;verticalAlign=middle;spacingTop=-1;spacingLeft=3;spacingRight=3;rotatable=0;labelPosition=right;points=[];portConstraint=eastwest;" parent="4tkjXzW0Gn319BX2Gngi-66" vertex="1">
          <mxGeometry y="90" width="230" height="8" as="geometry" />
        </mxCell>
        <mxCell id="4tkjXzW0Gn319BX2Gngi-70" value="" style="endArrow=open;endFill=1;endSize=12;html=1;exitX=0.5;exitY=0;exitDx=0;exitDy=0;" parent="WIyWlLk6GJQsqaUBKTNV-1" source="4tkjXzW0Gn319BX2Gngi-66" target="4tkjXzW0Gn319BX2Gngi-49" edge="1">
          <mxGeometry width="160" relative="1" as="geometry">
            <mxPoint x="1850" y="1420" as="sourcePoint" />
            <mxPoint x="2010" y="1420" as="targetPoint" />
          </mxGeometry>
        </mxCell>
        <mxCell id="PIoFPBQhuLVhphvXNbaX-0" value="Gives information about what to draw on the screen" style="text;html=1;strokeColor=none;fillColor=none;align=center;verticalAlign=middle;whiteSpace=wrap;rounded=0;" parent="WIyWlLk6GJQsqaUBKTNV-1" vertex="1">
          <mxGeometry x="2050" y="680" width="150" height="100" as="geometry" />
        </mxCell>
        <mxCell id="PIoFPBQhuLVhphvXNbaX-2" value="Receives update messages from another player using socket" style="text;html=1;strokeColor=none;fillColor=none;align=center;verticalAlign=middle;whiteSpace=wrap;rounded=0;" parent="WIyWlLk6GJQsqaUBKTNV-1" vertex="1">
          <mxGeometry x="1400" y="410" width="230" height="100" as="geometry" />
        </mxCell>
        <mxCell id="PIoFPBQhuLVhphvXNbaX-3" value="Draws screen" style="text;html=1;strokeColor=none;fillColor=none;align=center;verticalAlign=middle;whiteSpace=wrap;rounded=0;" parent="WIyWlLk6GJQsqaUBKTNV-1" vertex="1">
          <mxGeometry x="2590" y="510" width="90" height="20" as="geometry" />
        </mxCell>
        <mxCell id="AntspPVpGCCjLXlMSwEk-0" value="" style="endArrow=open;endFill=1;endSize=12;html=1;entryX=0.544;entryY=1.028;entryDx=0;entryDy=0;entryPerimeter=0;exitX=0.5;exitY=0;exitDx=0;exitDy=0;" parent="WIyWlLk6GJQsqaUBKTNV-1" source="4tkjXzW0Gn319BX2Gngi-50" target="4tkjXzW0Gn319BX2Gngi-37" edge="1">
          <mxGeometry width="160" relative="1" as="geometry">
            <mxPoint x="1890" y="860" as="sourcePoint" />
            <mxPoint x="2050" y="860" as="targetPoint" />
          </mxGeometry>
        </mxCell>
        <mxCell id="AntspPVpGCCjLXlMSwEk-1" value="&lt;div&gt;INetworkEventSubscriber&lt;/div&gt;&lt;div&gt;&lt;br&gt;&lt;/div&gt;&lt;div&gt;+handle(self, event)&lt;br&gt;&lt;/div&gt;" style="html=1;" parent="WIyWlLk6GJQsqaUBKTNV-1" vertex="1">
          <mxGeometry x="1230" y="540" width="220" height="104" as="geometry" />
        </mxCell>
        <mxCell id="AntspPVpGCCjLXlMSwEk-2" value="" style="endArrow=block;dashed=1;endFill=0;endSize=12;html=1;entryX=0;entryY=0.202;entryDx=0;entryDy=0;entryPerimeter=0;exitX=1.018;exitY=0.404;exitDx=0;exitDy=0;exitPerimeter=0;" parent="WIyWlLk6GJQsqaUBKTNV-1" source="AntspPVpGCCjLXlMSwEk-1" target="4tkjXzW0Gn319BX2Gngi-35" edge="1">
          <mxGeometry width="160" relative="1" as="geometry">
            <mxPoint x="1490" y="510" as="sourcePoint" />
            <mxPoint x="1650" y="510" as="targetPoint" />
          </mxGeometry>
        </mxCell>
        <mxCell id="rlCuyNvXnmVHfQDyliRF-4" value="WinScreen" style="swimlane;fontStyle=1;align=center;verticalAlign=top;childLayout=stackLayout;horizontal=1;startSize=26;horizontalStack=0;resizeParent=1;resizeParentMax=0;resizeLast=0;collapsible=1;marginBottom=0;" parent="WIyWlLk6GJQsqaUBKTNV-1" vertex="1">
          <mxGeometry x="2730" y="1210" width="160" height="100" as="geometry" />
        </mxCell>
        <mxCell id="rlCuyNvXnmVHfQDyliRF-5" value="+winner: Player" style="text;strokeColor=none;fillColor=none;align=left;verticalAlign=top;spacingLeft=4;spacingRight=4;overflow=hidden;rotatable=0;points=[[0,0.5],[1,0.5]];portConstraint=eastwest;" parent="rlCuyNvXnmVHfQDyliRF-4" vertex="1">
          <mxGeometry y="26" width="160" height="26" as="geometry" />
        </mxCell>
        <mxCell id="rlCuyNvXnmVHfQDyliRF-6" value="" style="line;strokeWidth=1;fillColor=none;align=left;verticalAlign=middle;spacingTop=-1;spacingLeft=3;spacingRight=3;rotatable=0;labelPosition=right;points=[];portConstraint=eastwest;" parent="rlCuyNvXnmVHfQDyliRF-4" vertex="1">
          <mxGeometry y="52" width="160" height="8" as="geometry" />
        </mxCell>
        <mxCell id="rlCuyNvXnmVHfQDyliRF-7" value="+ __init__(self, player)&#xa;+ keyboard_press(self, key)&#xa;" style="text;strokeColor=none;fillColor=none;align=left;verticalAlign=top;spacingLeft=4;spacingRight=4;overflow=hidden;rotatable=0;points=[[0,0.5],[1,0.5]];portConstraint=eastwest;" parent="rlCuyNvXnmVHfQDyliRF-4" vertex="1">
          <mxGeometry y="60" width="160" height="40" as="geometry" />
        </mxCell>
        <mxCell id="rlCuyNvXnmVHfQDyliRF-8" value="" style="endArrow=none;html=1;edgeStyle=orthogonalEdgeStyle;entryX=0.5;entryY=0;entryDx=0;entryDy=0;exitX=1;exitY=0.323;exitDx=0;exitDy=0;exitPerimeter=0;" parent="WIyWlLk6GJQsqaUBKTNV-1" source="4tkjXzW0Gn319BX2Gngi-23" target="rlCuyNvXnmVHfQDyliRF-4" edge="1">
          <mxGeometry relative="1" as="geometry">
            <mxPoint x="2650" y="620" as="sourcePoint" />
            <mxPoint x="2810" y="620" as="targetPoint" />
          </mxGeometry>
        </mxCell>
        <mxCell id="rlCuyNvXnmVHfQDyliRF-9" value="parent" style="edgeLabel;resizable=0;html=1;align=left;verticalAlign=bottom;" parent="rlCuyNvXnmVHfQDyliRF-8" connectable="0" vertex="1">
          <mxGeometry x="-1" relative="1" as="geometry" />
        </mxCell>
        <mxCell id="rlCuyNvXnmVHfQDyliRF-10" value="child" style="edgeLabel;resizable=0;html=1;align=right;verticalAlign=bottom;" parent="rlCuyNvXnmVHfQDyliRF-8" connectable="0" vertex="1">
          <mxGeometry x="1" relative="1" as="geometry" />
        </mxCell>
        <mxCell id="T0BwibXL6uzgpS17heqZ-0" value="GraphicsFacade" style="swimlane;fontStyle=1;align=center;verticalAlign=top;childLayout=stackLayout;horizontal=1;startSize=26;horizontalStack=0;resizeParent=1;resizeParentMax=0;resizeLast=0;collapsible=1;marginBottom=0;" vertex="1" parent="WIyWlLk6GJQsqaUBKTNV-1">
          <mxGeometry x="3060" y="370" width="160" height="100" as="geometry" />
        </mxCell>
        <mxCell id="T0BwibXL6uzgpS17heqZ-2" value="" style="line;strokeWidth=1;fillColor=none;align=left;verticalAlign=middle;spacingTop=-1;spacingLeft=3;spacingRight=3;rotatable=0;labelPosition=right;points=[];portConstraint=eastwest;" vertex="1" parent="T0BwibXL6uzgpS17heqZ-0">
          <mxGeometry y="26" width="160" height="8" as="geometry" />
        </mxCell>
        <mxCell id="T0BwibXL6uzgpS17heqZ-3" value="+ __init__(self)" style="text;strokeColor=none;fillColor=none;align=left;verticalAlign=top;spacingLeft=4;spacingRight=4;overflow=hidden;rotatable=0;points=[[0,0.5],[1,0.5]];portConstraint=eastwest;" vertex="1" parent="T0BwibXL6uzgpS17heqZ-0">
          <mxGeometry y="34" width="160" height="66" as="geometry" />
        </mxCell>
        <mxCell id="4tkjXzW0Gn319BX2Gngi-58" value="" style="endArrow=none;html=1;edgeStyle=orthogonalEdgeStyle;entryX=0.5;entryY=0;entryDx=0;entryDy=0;" parent="WIyWlLk6GJQsqaUBKTNV-1" target="4tkjXzW0Gn319BX2Gngi-54" edge="1">
          <mxGeometry relative="1" as="geometry">
            <mxPoint x="2610" y="680" as="sourcePoint" />
            <mxPoint x="2790" y="660" as="targetPoint" />
          </mxGeometry>
        </mxCell>
        <mxCell id="4tkjXzW0Gn319BX2Gngi-59" value="parent" style="edgeLabel;resizable=0;html=1;align=left;verticalAlign=bottom;" parent="4tkjXzW0Gn319BX2Gngi-58" connectable="0" vertex="1">
          <mxGeometry x="-1" relative="1" as="geometry">
            <mxPoint y="30" as="offset" />
          </mxGeometry>
        </mxCell>
        <mxCell id="4tkjXzW0Gn319BX2Gngi-60" value="child" style="edgeLabel;resizable=0;html=1;align=right;verticalAlign=bottom;" parent="4tkjXzW0Gn319BX2Gngi-58" connectable="0" vertex="1">
          <mxGeometry x="1" relative="1" as="geometry" />
        </mxCell>
        <mxCell id="T0BwibXL6uzgpS17heqZ-4" value="" style="endArrow=open;endFill=1;endSize=12;html=1;entryX=1;entryY=0.5;entryDx=0;entryDy=0;exitX=0;exitY=0.5;exitDx=0;exitDy=0;" edge="1" parent="WIyWlLk6GJQsqaUBKTNV-1" target="4tkjXzW0Gn319BX2Gngi-16">
          <mxGeometry width="160" relative="1" as="geometry">
            <mxPoint x="3060" y="409" as="sourcePoint" />
            <mxPoint x="3160" y="250" as="targetPoint" />
          </mxGeometry>
        </mxCell>
      </root>
    </mxGraphModel>
  </diagram>
</mxfile>
